HIERARCHY
ROOT hip
{
  OFFSET 0 0 0
  CHANNELS 6 Xposition Yposition Zposition Zrotation Yrotation Xrotation
  JOINT abdomen
  {
    OFFSET 0 20.6881 -0.73152
    CHANNELS 3 Zrotation Xrotation Yrotation
    JOINT chest
    {
      OFFSET 0 11.7043 -0.48768
      CHANNELS 3 Zrotation Xrotation Yrotation
      JOINT neck
      {
        OFFSET 0 22.1894 -2.19456
        CHANNELS 3 Zrotation Xrotation Yrotation
        JOINT head
        {
          OFFSET -0.24384 7.07133 1.2192
          CHANNELS 3 Zrotation Xrotation Yrotation
          JOINT leftEye
          {
            OFFSET 4.14528 8.04674 8.04672
            CHANNELS 3 Zrotation Xrotation Yrotation
            End Site
            {
              OFFSET 1 0 0
            }
          }
          JOINT rightEye
          {
            OFFSET -3.6576 8.04674 8.04672
            CHANNELS 3 Zrotation Xrotation Yrotation
            End Site
            {
              OFFSET 1 0 0
            }
          }
        }
      }
      JOINT rCollar
      {
        OFFSET -2.68224 19.2634 -4.8768
        CHANNELS 3 Zrotation Xrotation Yrotation
        JOINT rShldr
        {
          OFFSET -8.77824 -1.95073 1.46304
          CHANNELS 3 Zrotation Xrotation Yrotation
          JOINT rForeArm
          {
            OFFSET -28.1742 -1.7115 0.48768
            CHANNELS 3 Zrotation Xrotation Yrotation
            JOINT rHand
            {
              OFFSET -22.5879 0.773209 7.07136
              CHANNELS 3 Zrotation Xrotation Yrotation
              JOINT rThumb1
              {
                OFFSET -1.2192 -0.487915 3.41376
                CHANNELS 3 Zrotation Xrotation Yrotation
                JOINT rThumb2
                {
                  OFFSET -3.37035 -0.52449 3.41376
                  CHANNELS 3 Zrotation Xrotation Yrotation
                  End Site
                  {
                    OFFSET -1.78271 -1.18214 1.43049
                  }
                }
              }
              JOINT rIndex1
              {
                OFFSET -7.75947 0.938293 5.60832
                CHANNELS 3 Zrotation Xrotation Yrotation
                JOINT rIndex2
                {
                  OFFSET -2.54057 -0.884171 1.56538
                  CHANNELS 3 Zrotation Xrotation Yrotation
                  End Site
                  {
                    OFFSET -1.62519 -0.234802 1.16502
                  }
                }
              }
              JOINT rMid1
              {
                OFFSET -8.24714 1.18213 3.41376
                CHANNELS 3 Zrotation Xrotation Yrotation
                JOINT rMid2
                {
                  OFFSET -3.10165 -0.590103 1.0647
                  CHANNELS 3 Zrotation Xrotation Yrotation
                  End Site
                  {
                    OFFSET -2.48547 -0.328903 0.83742
                  }
                }
              }
              JOINT rRing1
              {
                OFFSET -8.82822 0.546677 1.51678
                CHANNELS 3 Zrotation Xrotation Yrotation
                JOINT rRing2
                {
                  OFFSET -2.60934 -0.819778 -0.0198488
                  CHANNELS 3 Zrotation Xrotation Yrotation
                  End Site
                  {
                    OFFSET -2.33842 -0.294052 0.168128
                  }
                }
              }
              JOINT rPinky1
              {
                OFFSET -8.27202 -0.0477905 -0.4584
                CHANNELS 3 Zrotation Xrotation Yrotation
                JOINT rPinky2
                {
                  OFFSET -1.82734 -0.647385 -0.700984
                  CHANNELS 3 Zrotation Xrotation Yrotation
                  End Site
                  {
                    OFFSET -1.69225 -0.51767 -0.607171
                  }
                }
              }
            }
          }
        }
      }
      JOINT lCollar
      {
        OFFSET 2.68224 19.2634 -4.8768
        CHANNELS 3 Zrotation Xrotation Yrotation
        JOINT lShldr
        {
          OFFSET 8.77824 -1.95073 1.46304
          CHANNELS 3 Zrotation Xrotation Yrotation
          JOINT lForeArm
          {
            OFFSET 28.1742 -1.7115 0.48768
            CHANNELS 3 Zrotation Xrotation Yrotation
            JOINT lHand
            {
              OFFSET 22.5879 0.773209 7.07136
              CHANNELS 3 Zrotation Xrotation Yrotation
              JOINT lThumb1
              {
                OFFSET 1.2192 -0.487915 3.41376
                CHANNELS 3 Zrotation Xrotation Yrotation
                JOINT lThumb2
                {
                  OFFSET 3.37035 -0.52449 3.41376
                  CHANNELS 3 Zrotation Xrotation Yrotation
                  End Site
                  {
                    OFFSET 1.78271 -1.18214 1.43049
                  }
                }
              }
              JOINT lIndex1
              {
                OFFSET 7.75947 0.938293 5.60832
                CHANNELS 3 Zrotation Xrotation Yrotation
                JOINT lIndex2
                {
                  OFFSET 2.54057 -0.884171 1.56538
                  CHANNELS 3 Zrotation Xrotation Yrotation
                  End Site
                  {
                    OFFSET 1.62519 -0.234802 1.16502
                  }
                }
              }
              JOINT lMid1
              {
                OFFSET 8.24714 1.18213 3.41376
                CHANNELS 3 Zrotation Xrotation Yrotation
                JOINT lMid2
                {
                  OFFSET 3.10165 -0.590103 1.0647
                  CHANNELS 3 Zrotation Xrotation Yrotation
                  End Site
                  {
                    OFFSET 2.48547 -0.328903 0.83742
                  }
                }
              }
              JOINT lRing1
              {
                OFFSET 8.82822 0.546677 1.51678
                CHANNELS 3 Zrotation Xrotation Yrotation
                JOINT lRing2
                {
                  OFFSET 2.60934 -0.819778 -0.0198488
                  CHANNELS 3 Zrotation Xrotation Yrotation
                  End Site
                  {
                    OFFSET 2.33842 -0.294052 0.168128
                  }
                }
              }
              JOINT lPinky1
              {
                OFFSET 8.27202 -0.0477905 -0.4584
                CHANNELS 3 Zrotation Xrotation Yrotation
                JOINT lPinky2
                {
                  OFFSET 1.82734 -0.647385 -0.700984
                  CHANNELS 3 Zrotation Xrotation Yrotation
                  End Site
                  {
                    OFFSET 1.69225 -0.51767 -0.607171
                  }
                }
              }
            }
          }
        }
      }
    }
  }
  JOINT rButtock
  {
    OFFSET -8.77824 4.35084 1.2192
    CHANNELS 3 Zrotation Xrotation Yrotation
    JOINT rThigh
    {
      OFFSET 0 -1.70687 -2.19456
      CHANNELS 3 Zrotation Xrotation Yrotation
      JOINT rShin
      {
        OFFSET 0 -36.8199 0.73152
        CHANNELS 3 Zrotation Xrotation Yrotation
        JOINT rFoot
        {
          OFFSET 0.73152 -45.1104 -5.12064
          CHANNELS 3 Zrotation Xrotation Yrotation
          End Site
          {
            OFFSET -1.1221 -3.69964 12.103
          }
        }
      }
    }
  }
  JOINT lButtock
  {
    OFFSET 8.77824 4.35084 1.2192
    CHANNELS 3 Zrotation Xrotation Yrotation
    JOINT lThigh
    {
      OFFSET 0 -1.70687 -2.19456
      CHANNELS 3 Zrotation Xrotation Yrotation
      JOINT lShin
      {
        OFFSET 0 -36.8199 0.73152
        CHANNELS 3 Zrotation Xrotation Yrotation
        JOINT lFoot
        {
          OFFSET -0.73152 -45.1104 -5.12064
          CHANNELS 3 Zrotation Xrotation Yrotation
          End Site
          {
            OFFSET 1.1221 -3.69964 12.103
          }
        }
      }
    }
  }
}
MOTION
Frames:	4
Frame Time:	0.03333
3.163328440859914 79.31692004203796 1.29105388186872 1.5204719305038452 2.0359280109405518 6.079841136932373 -6.549497604370117 8.711285591125488 5.973437786102295 1.3218975067138672 -6.443283557891846 1.5995725393295288 -5.47389030456543 11.987774848937988 -6.148434638977051 7.066354274749756 -25.048656463623047 -9.61320686340332 0.1742890328168869 -0.07829210162162781 0.21636995673179626 -0.126461923122406 -0.5569961071014404 0.031177500262856483 -0.19758039712905884 -0.053165655583143234 0.20560526847839355 -0.36530601978302 36.534156799316406 64.21570587158203 -27.475341796875 -27.87569808959961 63.14396286010742 0.0035834636073559523 -7.358555316925049 -0.6731182336807251 -0.2067844718694687 0.004146171268075705 0.24258829653263092 0.06041315197944641 0.2554791569709778 0.10011030733585358 -0.25681743025779724 0.3290760815143585 -0.2587948143482208 8.088340759277344 5.5429511070251465 0.4331621825695038 0.2612729072570801 0.029545119032263756 -0.03331921994686127 2.8190689086914062 1.0041528940200806 0.39136195182800293 0.04689854755997658 -0.00010439522884553298 -0.28770750761032104 10.393936157226562 0.7451211810112 0.010837090201675892 0.16930769383907318 -0.21389979124069214 -0.10277450084686279 2.0455894470214844 -0.8440520167350769 -0.09787632524967194 -0.12609264254570007 -0.020757904276251793 -0.04586820676922798 -40.4911003112793 42.8267707824707 -42.908329010009766 27.95240020751953 -29.608083724975586 -66.62349700927734 0.23454488813877106 -16.38713836669922 2.1046719551086426 -0.039058029651641846 -0.08089777082204819 -0.13963066041469574 -0.023216979578137398 0.025334464386105537 -0.02716427482664585 0.16586433351039886 0.0358114019036293 0.0791294053196907 -8.072667121887207 5.39769172668457 -0.3349003493785858 0.36027657985687256 -0.13138486444950104 -0.115632064640522 -3.2006266117095947 0.9668431282043457 0.07592839747667313 -0.09242148697376251 -0.009662710130214691 -0.3338424861431122 -10.513965606689453 0.5279639363288879 0.13219448924064636 -0.13801144063472748 -0.12289448082447052 0.0784793570637703 -1.897713303565979 -0.3394697606563568 0.17519374191761017 0.14124222099781036 0.16562123596668243 -0.18904605507850647 1.5463783740997314 -35.917354583740234 -1.166952133178711 -0.9668555855751038 54.26112365722656 1.3953392505645752 -3.651111602783203 -14.850337982177734 -8.270378112792969 -0.34346041083335876 0.01748896948993206 -0.13074341416358948 -11.957305908203125 -37.27146911621094 -9.135863304138184 0.6782770752906799 47.637760162353516 -0.7564612030982971 1.3938233852386475 -12.379632949829102 4.504906177520752
3.1480866950005293 79.34879064559937 1.4793197624385357 1.3922889232635498 1.9353312253952026 6.102207660675049 -6.458971977233887 8.479574203491211 6.07482385635376 1.279876470565796 -6.428596019744873 1.623682975769043 -5.529098987579346 12.053947448730469 -6.27489709854126 7.179555416107178 -25.19575309753418 -9.74326229095459 0.16499726474285126 -0.06028757616877556 0.18377259373664856 -0.16329455375671387 -0.5245385766029358 0.01816190406680107 -0.17878206074237823 -0.05018526315689087 0.1943291872739792 -2.1256799697875977 37.13348388671875 65.6174087524414 -27.664169311523438 -28.737390518188477 64.45906829833984 0.0027313122991472483 -7.202328205108643 -0.6976010799407959 -0.23811548948287964 0.014527908526360989 0.24389563500881195 0.048848286271095276 0.25339436531066895 0.10261354595422745 -0.25436094403266907 0.3196239471435547 -0.2472611367702484 8.090044975280762 5.569364547729492 0.4128044843673706 0.26232466101646423 0.05313635617494583 -0.027700038626790047 2.80557918548584 0.9761801958084106 0.3959071934223175 0.054407998919487 0.00612242566421628 -0.2809186279773712 10.373578071594238 0.7544830441474915 0.021003112196922302 0.17766018211841583 -0.23241586983203888 -0.10066051781177521 2.059321641921997 -0.8516956567764282 -0.10130578279495239 -0.1179274246096611 -0.02909696474671364 -0.03559669852256775 -40.37689971923828 43.505271911621094 -42.10087585449219 28.069305419921875 -30.445112228393555 -67.99493408203125 0.22626280784606934 -16.11662483215332 2.0315794944763184 -0.06464853882789612 -0.042535748332738876 -0.1190015897154808 -0.0468621589243412 0.008430658839643002 -0.0039043028373271227 0.18801526725292206 0.03194296360015869 0.06574049592018127 -8.065093040466309 5.404717922210693 -0.31353870034217834 0.3319571018218994 -0.1466113030910492 -0.12027307599782944 -3.1915998458862305 0.9896305203437805 0.093157097697258 -0.095222108066082 0.02375680021941662 -0.35571104288101196 -10.506518363952637 0.5179060697555542 0.12269608676433563 -0.12840518355369568 -0.12776535749435425 0.04957428574562073 -1.8977224826812744 -0.3596733808517456 0.17549656331539154 0.13368630409240723 0.1465931385755539 -0.18428033590316772 1.784653902053833 -35.401851654052734 -1.2989370822906494 -0.8866366744041443 53.81688690185547 1.3415355682373047 -3.3410022258758545 -15.033162117004395 -7.416147232055664 -0.3250519633293152 -0.02905884198844433 -0.13331395387649536 -11.940523147583008 -37.416404724121094 -9.412507057189941 0.7459604740142822 47.714263916015625 -0.7942919135093689 1.3315305709838867 -12.346303939819336 4.381192684173584
3.1701259780675173 79.43763732910156 1.6293049324303865 1.2300634384155273 2.2845942974090576 6.015388488769531 -6.627915382385254 8.214991569519043 6.059682369232178 1.3317406177520752 -6.401216506958008 1.6369203329086304 -5.647702217102051 12.118393898010254 -6.459009170532227 7.269418716430664 -25.285964965820312 -10.03184986114502 0.17335817217826843 -0.06551969796419144 0.13957326114177704 -0.20843492448329926 -0.4796760082244873 0.0033791139721870422 -0.15270617604255676 -0.04917054623365402 0.19305205345153809 -2.9537851810455322 37.6688232421875 66.286865234375 -27.745098114013672 -29.213886260986328 65.14192962646484 -0.0022532709408551455 -6.804478645324707 -0.6846243143081665 -0.2466219812631607 0.0235990509390831 0.2275441586971283 0.02605219930410385 0.23248565196990967 0.10787680000066757 -0.2261129468679428 0.30703026056289673 -0.2258521467447281 8.070734977722168 5.5999369621276855 0.3864910304546356 0.23980729281902313 0.08372902870178223 -0.015000940300524235 2.8185312747955322 0.9569829702377319 0.3967544138431549 0.07661455124616623 0.0077295065857470036 -0.250631183385849 10.343239784240723 0.7829486131668091 0.02114022895693779 0.17252559959888458 -0.25312191247940063 -0.10225875675678253 2.094547986984253 -0.8705915212631226 -0.10504422336816788 -0.12787078320980072 -0.0518701896071434 -0.049857642501592636 -40.516536712646484 44.20165252685547 -41.12521743774414 28.109256744384766 -30.947879791259766 -68.8157730102539 0.2347743958234787 -15.676000595092773 1.9269819259643555 -0.07206352055072784 -0.01178667601197958 -0.11227865517139435 -0.06363219767808914 -0.006268749944865704 0.020318543538451195 0.19766663014888763 0.04332861304283142 0.0615900419652462 -8.058971405029297 5.40260124206543 -0.3022159934043884 0.3046616017818451 -0.15955312550067902 -0.11784321814775467 -3.1654052734375 1.0000226497650146 0.10608537495136261 -0.09292959421873093 0.04547034949064255 -0.3699544370174408 -10.496110916137695 0.5072435736656189 0.10244449228048325 -0.12998183071613312 -0.12665529549121857 0.01728145405650139 -1.9186843633651733 -0.382504940032959 0.16853444278240204 0.12395624071359634 0.13341151177883148 -0.18752634525299072 1.8478736877441406 -35.28009796142578 -1.2608627080917358 -0.8305051922798157 53.375274658203125 1.2855910062789917 -2.802011251449585 -14.847795486450195 -5.966301441192627 -0.3095454275608063 -0.07544925063848495 -0.13959158957004547 -12.110594749450684 -36.77092361450195 -9.757197380065918 0.7815581560134888 47.47190856933594 -0.8543442487716675 1.480015754699707 -12.66458511352539 4.711953639984131
3.235614439472556 79.52399253845215 1.740856096148491 1.0588027238845825 2.7887659072875977 5.852997303009033 -6.900609493255615 8.007874488830566 6.018046855926514 1.4418282508850098 -6.373472213745117 1.6529825925827026 -5.782831192016602 12.19110107421875 -6.646706581115723 7.348761558532715 -25.32801628112793 -10.353007316589355 0.1754520684480667 -0.07719993591308594 0.08407361060380936 -0.24787434935569763 -0.4380055069923401 -0.009285922162234783 -0.12438184767961502 -0.05795421823859215 0.1999313235282898 -3.3794846534729004 38.040462493896484 66.74592590332031 -27.78997802734375 -29.50821876525879 65.5209732055664 -0.004737355746328831 -6.404136657714844 -0.6642675995826721 -0.23473267257213593 0.03411882370710373 0.21557095646858215 0.005801227875053883 0.2019956260919571 0.11071450263261795 -0.1829274594783783 0.28941869735717773 -0.1978714019060135 8.04690933227539 5.642759799957275 0.35674765706062317 0.21063220500946045 0.10757268965244293 0.0020655218977481127 2.849806308746338 0.9376543164253235 0.3898833990097046 0.1046283021569252 0.001080694724805653 -0.2074773907661438 10.3106107711792 0.8208363056182861 0.005409173667430878 0.15958435833454132 -0.26769107580184937 -0.10502862930297852 2.130173683166504 -0.893703043460846 -0.10286837816238403 -0.14447501301765442 -0.07684122025966644 -0.07945557683706284 -40.627342224121094 44.98933792114258 -40.286048889160156 28.122255325317383 -31.341468811035156 -69.45863342285156 0.25811412930488586 -15.240618705749512 1.8343908786773682 -0.06389253586530685 0.011993846856057644 -0.11371447890996933 -0.07214528322219849 -0.020028185099363327 0.028174078091979027 0.21249696612358093 0.06817023456096649 0.06763345748186111 -8.053526878356934 5.394320011138916 -0.3023117184638977 0.2781715393066406 -0.17148645222187042 -0.10632606595754623 -3.1324853897094727 0.9899006485939026 0.1292821615934372 -0.08191970735788345 0.05760218948125839 -0.3766941428184509 -10.476573944091797 0.5014689564704895 0.08213601261377335 -0.13725027441978455 -0.11550971120595932 -0.02879457175731659 -1.9374735355377197 -0.39328065514564514 0.16421949863433838 0.10654813051223755 0.13106182217597961 -0.19188886880874634 1.8347660303115845 -35.49738693237305 -1.1221686601638794 -0.7975078225135803 53.04203796386719 1.2448112964630127 -2.170289993286133 -14.456852912902832 -4.273850440979004 -0.3008255660533905 -0.11680040508508682 -0.14548833668231964 -12.38826847076416 -35.731407165527344 -10.105050086975098 0.7870911359786987 47.1422004699707 -0.9223623275756836 1.755566120147705 -13.18921184539795 5.280196189880371
